<svg width="24" height="24" viewBox="0 0 24 24" fill="none" xmlns="http://www.w3.org/2000/svg">
<path fill-rule="evenodd" clip-rule="evenodd" d="M5.29303 12.2932C5.10556 12.4808 5.00024 12.7351 5.00024 13.0002C5.00024 13.2654 5.10556 13.5197 5.29303 13.7072L11.293 19.7072C11.4806 19.8947 11.7349 20 12 20C12.2652 20 12.5195 19.8947 12.707 19.7072L18.707 13.7072C18.8892 13.5186 18.99 13.266 18.9877 13.0038C18.9854 12.7416 18.8803 12.4908 18.6948 12.3054C18.5094 12.12 18.2586 12.0148 17.9964 12.0126C17.7342 12.0103 17.4816 12.1111 17.293 12.2932L13 16.5862V5.00024C13 4.73503 12.8947 4.48067 12.7071 4.29314C12.5196 4.1056 12.2652 4.00024 12 4.00024C11.7348 4.00024 11.4805 4.1056 11.2929 4.29314C11.1054 4.48067 11 4.73503 11 5.00024V16.5862L6.70703 12.2932C6.5195 12.1058 6.26519 12.0005 6.00003 12.0005C5.73487 12.0005 5.48056 12.1058 5.29303 12.2932Z" fill="#5B6871"/>
</svg>
