<svg width="36" height="36" viewBox="0 0 36 36" fill="none" xmlns="http://www.w3.org/2000/svg">
<path fill-rule="evenodd" clip-rule="evenodd" d="M9 9C8.20435 9 7.44129 9.31607 6.87868 9.87868C6.31607 10.4413 6 11.2044 6 12V18C6 18.7956 6.31607 19.5587 6.87868 20.1213C7.44129 20.6839 8.20435 21 9 21V12H24C24 11.2044 23.6839 10.4413 23.1213 9.87868C22.5587 9.31607 21.7956 9 21 9H9ZM12 18C12 17.2044 12.3161 16.4413 12.8787 15.8787C13.4413 15.3161 14.2044 15 15 15H27C27.7956 15 28.5587 15.3161 29.1213 15.8787C29.6839 16.4413 30 17.2044 30 18V24C30 24.7956 29.6839 25.5587 29.1213 26.1213C28.5587 26.6839 27.7956 27 27 27H15C14.2044 27 13.4413 26.6839 12.8787 26.1213C12.3161 25.5587 12 24.7956 12 24V18ZM21 24C21.7956 24 22.5587 23.6839 23.1213 23.1213C23.6839 22.5587 24 21.7956 24 21C24 20.2044 23.6839 19.4413 23.1213 18.8787C22.5587 18.3161 21.7956 18 21 18C20.2044 18 19.4413 18.3161 18.8787 18.8787C18.3161 19.4413 18 20.2044 18 21C18 21.7956 18.3161 22.5587 18.8787 23.1213C19.4413 23.6839 20.2044 24 21 24Z" fill="#262626"/>
</svg>
