<svg width="36" height="36" viewBox="0 0 36 36" fill="none" xmlns="http://www.w3.org/2000/svg">
<path d="M15.4393 6.43934C15.7206 6.15804 16.1022 6 16.5 6H19.5C19.8978 6 20.2794 6.15804 20.5607 6.43934C20.842 6.72064 21 7.10218 21 7.5C21 7.89782 20.842 8.27936 20.5607 8.56066C20.2794 8.84196 19.8978 9 19.5 9H16.5C16.1022 9 15.7206 8.84196 15.4393 8.56066C15.158 8.27936 15 7.89782 15 7.5C15 7.10218 15.158 6.72064 15.4393 6.43934Z" fill="#262626"/>
<path fill-rule="evenodd" clip-rule="evenodd" d="M9.87868 8.37868C9.31607 8.94129 9 9.70435 9 10.5V27C9 27.7957 9.31607 28.5587 9.87868 29.1213C10.4413 29.6839 11.2044 30 12 30H24C24.7957 30 25.5587 29.6839 26.1213 29.1213C26.6839 28.5587 27 27.7957 27 27V10.5C27 9.70435 26.6839 8.94129 26.1213 8.37868C25.5587 7.81607 24.7957 7.5 24 7.5C24 8.69347 23.5259 9.83807 22.682 10.682C21.8381 11.5259 20.6935 12 19.5 12H16.5C15.3065 12 14.1619 11.5259 13.318 10.682C12.4741 9.83807 12 8.69347 12 7.5C11.2044 7.5 10.4413 7.81607 9.87868 8.37868ZM23.9815 18.0054C23.9849 18.3987 23.8337 18.7776 23.5605 19.0605L17.5605 25.0605C17.2792 25.3417 16.8977 25.4997 16.5 25.4997C16.1023 25.4997 15.7208 25.3417 15.4395 25.0605L12.4395 22.0605C12.1663 21.7776 12.0151 21.3987 12.0185 21.0054C12.0219 20.6121 12.1797 20.2359 12.4578 19.9578C12.7359 19.6797 13.1121 19.5219 13.5054 19.5185C13.8987 19.5151 14.2776 19.6663 14.5605 19.9395L16.5 21.879L21.4395 16.9395C21.7224 16.6663 22.1013 16.5151 22.4946 16.5185C22.8879 16.5219 23.2641 16.6797 23.5422 16.9578C23.8203 17.2359 23.9781 17.6121 23.9815 18.0054Z" fill="#262626"/>
</svg>
