<svg width="32" height="32" viewBox="0 0 32 32" fill="none" xmlns="http://www.w3.org/2000/svg">
<path d="M16 29.3333V17.3333" stroke="black" stroke-width="2.66667" stroke-linecap="round" stroke-linejoin="round"/>
<path d="M20.2267 2.94668C20.5588 2.761 20.9329 2.66351 21.3134 2.66351C21.6938 2.66351 22.0679 2.761 22.4 2.94668L28 6.09334C28.3966 6.31761 28.7266 6.64316 28.9561 7.03672C29.1857 7.43027 29.3067 7.87772 29.3067 8.33334C29.3067 8.78897 29.1857 9.23642 28.9561 9.62997C28.7266 10.0235 28.3966 10.3491 28 10.5733L11.76 19.72C11.427 19.91 11.0501 20.0099 10.6667 20.0099C10.2833 20.0099 9.90643 19.91 9.57336 19.72L4.00003 16.5733C3.60342 16.3491 3.27348 16.0235 3.0439 15.63C2.81433 15.2364 2.69336 14.789 2.69336 14.3333C2.69336 13.8777 2.81433 13.4303 3.0439 13.0367C3.27348 12.6432 3.60342 12.3176 4.00003 12.0933L20.2267 2.94668Z" stroke="black" stroke-width="2.66667" stroke-linecap="round" stroke-linejoin="round"/>
<path d="M26.6666 17.3333V22.4933C26.6671 22.9966 26.5293 23.4903 26.2683 23.9206C26.0073 24.3509 25.6331 24.7013 25.1866 24.9333L17.1866 29.04C16.82 29.2305 16.413 29.33 15.9999 29.33C15.5868 29.33 15.1798 29.2305 14.8133 29.04L6.81325 24.9333C6.3667 24.7013 5.99249 24.3509 5.73149 23.9206C5.47049 23.4903 5.33273 22.9966 5.33325 22.4933V17.3333" stroke="black" stroke-width="2.66667" stroke-linecap="round" stroke-linejoin="round"/>
<path d="M28 16.5733C28.3966 16.3491 28.7266 16.0235 28.9561 15.6299C29.1857 15.2364 29.3067 14.7889 29.3067 14.3333C29.3067 13.8777 29.1857 13.4302 28.9561 13.0367C28.7266 12.6431 28.3966 12.3176 28 12.0933L11.7734 2.93332C11.4425 2.74387 11.0679 2.6442 10.6867 2.6442C10.3055 2.6442 9.93085 2.74387 9.60003 2.93332L4.00003 6.09332C3.60342 6.31759 3.27348 6.64314 3.0439 7.03669C2.81433 7.43025 2.69336 7.8777 2.69336 8.33332C2.69336 8.78894 2.81433 9.23639 3.0439 9.62995C3.27348 10.0235 3.60342 10.3491 4.00003 10.5733L20.24 19.72C20.5707 19.91 20.9454 20.0099 21.3267 20.0099C21.708 20.0099 22.0827 19.91 22.4134 19.72L28 16.5733Z" stroke="black" stroke-width="2.66667" stroke-linecap="round" stroke-linejoin="round"/>
</svg>
