<svg width="32" height="32" viewBox="0 0 32 32" fill="none" xmlns="http://www.w3.org/2000/svg">
<path d="M10.5334 26.6667C13.0782 27.9721 16.0055 28.3257 18.7879 27.6637C21.5703 27.0018 24.0248 25.3678 25.7091 23.0563C27.3934 20.7447 28.1966 17.9076 27.9742 15.0562C27.7517 12.2048 26.5182 9.52664 24.4958 7.50427C22.4735 5.4819 19.7953 4.24835 16.9439 4.0259C14.0925 3.80345 11.2554 4.60674 8.94384 6.29101C6.63231 7.97527 4.99834 10.4298 4.33638 13.2122C3.67442 15.9946 4.028 18.9219 5.33341 21.4667L2.66675 29.3333L10.5334 26.6667Z" stroke="black" stroke-width="2.66667" stroke-linecap="round" stroke-linejoin="round"/>
<path d="M12.1201 12C12.4336 11.1089 13.0523 10.3575 13.8667 9.87884C14.6811 9.40021 15.6386 9.22525 16.5697 9.38495C17.5007 9.54464 18.3452 10.0287 18.9536 10.7514C19.5619 11.474 19.8949 12.3887 19.8935 13.3333C19.8935 16 15.8935 17.3333 15.8935 17.3333" stroke="black" stroke-width="2.66667" stroke-linecap="round" stroke-linejoin="round"/>
<path d="M16 22.6667H16.0133" stroke="black" stroke-width="2.66667" stroke-linecap="round" stroke-linejoin="round"/>
</svg>
