<svg width="32" height="32" viewBox="0 0 32 32" fill="none" xmlns="http://www.w3.org/2000/svg">
<path d="M13.1733 13.1733C12.7803 13.5395 12.4651 13.9811 12.2464 14.4718C12.0278 14.9625 11.9102 15.4921 11.9008 16.0292C11.8913 16.5663 11.9901 17.0998 12.1913 17.5979C12.3924 18.0959 12.6919 18.5484 13.0717 18.9282C13.4516 19.308 13.904 19.6075 14.4021 19.8087C14.9001 20.0098 15.4336 20.1086 15.9707 20.0992C16.5078 20.0897 17.0375 19.9721 17.5281 19.7535C18.0188 19.5349 18.4604 19.2197 18.8266 18.8267" stroke="black" stroke-width="2.66667" stroke-linecap="round" stroke-linejoin="round"/>
<path d="M14.3066 6.77332C14.8684 6.70334 15.4339 6.66771 16 6.66666C25.3333 6.66666 29.3333 16 29.3333 16C28.7372 17.2762 27.9896 18.4759 27.1066 19.5733" stroke="black" stroke-width="2.66667" stroke-linecap="round" stroke-linejoin="round"/>
<path d="M8.81342 8.81332C6.16175 10.6195 4.03991 13.1003 2.66675 16C2.66675 16 6.66675 25.3333 16.0001 25.3333C18.5546 25.3402 21.0545 24.5935 23.1867 23.1867" stroke="black" stroke-width="2.66667" stroke-linecap="round" stroke-linejoin="round"/>
<path d="M2.66675 2.66666L29.3334 29.3333" stroke="black" stroke-width="2.66667" stroke-linecap="round" stroke-linejoin="round"/>
</svg>
