<svg width="20" height="21" viewBox="0 0 20 21" fill="none" xmlns="http://www.w3.org/2000/svg">
<path fill-rule="evenodd" clip-rule="evenodd" d="M3.70698 2.79298C3.51838 2.61082 3.26578 2.51003 3.00358 2.51231C2.74138 2.51458 2.49057 2.61975 2.30516 2.80516C2.11975 2.99057 2.01458 3.24138 2.01231 3.50358C2.01003 3.76578 2.11082 4.01838 2.29298 4.20698L16.293 18.207C16.4816 18.3891 16.7342 18.4899 16.9964 18.4877C17.2586 18.4854 17.5094 18.3802 17.6948 18.1948C17.8802 18.0094 17.9854 17.7586 17.9877 17.4964C17.9899 17.2342 17.8891 16.9816 17.707 16.793L16.234 15.32C17.7915 14.0781 18.9433 12.3999 19.542 10.5C18.268 6.44298 14.478 3.49998 9.99998 3.49998C8.43241 3.49785 6.88648 3.86583 5.48798 4.57398L3.70698 2.79298ZM7.96798 7.05298L9.48198 8.56798C9.82107 8.47793 10.1779 8.47853 10.5167 8.56971C10.8554 8.66089 11.1643 8.83946 11.4124 9.08755C11.6605 9.33563 11.8391 9.64452 11.9303 9.98331C12.0214 10.3221 12.022 10.6789 11.932 11.018L13.446 12.532C13.897 11.768 14.0812 10.8758 13.9696 9.99566C13.8581 9.11554 13.4571 8.29747 12.8298 7.67016C12.2025 7.04284 11.3844 6.64187 10.5043 6.53033C9.62419 6.41878 8.73196 6.60199 7.96798 7.05298Z" fill="#A3A3A3"/>
<path d="M12.454 17.197L9.75001 14.492C8.77769 14.4311 7.86103 14.0174 7.17206 13.3286C6.4831 12.6398 6.06918 11.7233 6.00801 10.751L2.33501 7.078C1.49022 8.08402 0.852357 9.24692 0.458008 10.5C1.73201 14.557 5.52301 17.5 10 17.5C10.847 17.5 11.669 17.395 12.454 17.197Z" fill="#A3A3A3"/>
</svg>
