<svg width="36" height="36" viewBox="0 0 36 36" fill="none" xmlns="http://www.w3.org/2000/svg">
<path d="M19.0604 6.43955C18.7791 6.15834 18.3976 6.00037 17.9999 6.00037C17.6021 6.00037 17.2207 6.15834 16.9394 6.43955L6.43938 16.9395C6.16614 17.2224 6.01495 17.6014 6.01837 17.9946C6.02178 18.3879 6.17954 18.7642 6.45765 19.0423C6.73576 19.3204 7.11198 19.4781 7.50528 19.4816C7.89857 19.485 8.27748 19.3338 8.56038 19.0605L8.99988 18.621V28.5C8.99988 28.8979 9.15791 29.2794 9.43922 29.5607C9.72052 29.842 10.1021 30 10.4999 30H13.4999C13.8977 30 14.2792 29.842 14.5605 29.5607C14.8418 29.2794 14.9999 28.8979 14.9999 28.5V25.5C14.9999 25.1022 15.1579 24.7207 15.4392 24.4394C15.7205 24.1581 16.1021 24 16.4999 24H19.4999C19.8977 24 20.2792 24.1581 20.5605 24.4394C20.8418 24.7207 20.9999 25.1022 20.9999 25.5V28.5C20.9999 28.8979 21.1579 29.2794 21.4392 29.5607C21.7205 29.842 22.1021 30 22.4999 30H25.4999C25.8977 30 26.2792 29.842 26.5605 29.5607C26.8418 29.2794 26.9999 28.8979 26.9999 28.5V18.621L27.4394 19.0605C27.7223 19.3338 28.1012 19.485 28.4945 19.4816C28.8878 19.4781 29.264 19.3204 29.5421 19.0423C29.8202 18.7642 29.978 18.3879 29.9814 17.9946C29.9848 17.6014 29.8336 17.2224 29.5604 16.9395L19.0604 6.43955Z" fill="#D4D4D4"/>
</svg>
