<svg width="36" height="36" viewBox="0 0 36 36" fill="none" xmlns="http://www.w3.org/2000/svg">
<path d="M19.0606 6.43955C18.7793 6.15834 18.3979 6.00037 18.0001 6.00037C17.6024 6.00037 17.2209 6.15834 16.9396 6.43955L6.43962 16.9395C6.16639 17.2224 6.01519 17.6014 6.01861 17.9946C6.02203 18.3879 6.17978 18.7642 6.45789 19.0423C6.73601 19.3204 7.11223 19.4781 7.50552 19.4816C7.89882 19.485 8.27772 19.3338 8.56062 19.0605L9.00012 18.621V28.5C9.00012 28.8979 9.15816 29.2794 9.43946 29.5607C9.72077 29.842 10.1023 30 10.5001 30H13.5001C13.8979 30 14.2795 29.842 14.5608 29.5607C14.8421 29.2794 15.0001 28.8979 15.0001 28.5V25.5C15.0001 25.1022 15.1582 24.7207 15.4395 24.4394C15.7208 24.1581 16.1023 24 16.5001 24H19.5001C19.8979 24 20.2795 24.1581 20.5608 24.4394C20.8421 24.7207 21.0001 25.1022 21.0001 25.5V28.5C21.0001 28.8979 21.1582 29.2794 21.4395 29.5607C21.7208 29.842 22.1023 30 22.5001 30H25.5001C25.8979 30 26.2795 29.842 26.5608 29.5607C26.8421 29.2794 27.0001 28.8979 27.0001 28.5V18.621L27.4396 19.0605C27.7225 19.3338 28.1014 19.485 28.4947 19.4816C28.888 19.4781 29.2642 19.3204 29.5424 19.0423C29.8205 18.7642 29.9782 18.3879 29.9816 17.9946C29.9851 17.6014 29.8339 17.2224 29.5606 16.9395L19.0606 6.43955Z" fill="#262626"/>
</svg>
