<svg width="48" height="48" viewBox="0 0 48 48" fill="none" xmlns="http://www.w3.org/2000/svg">
<rect width="48" height="48" rx="5" fill="#F5F5F5"/>
<path d="M21.5 26.5L35.25 12.75" stroke="#868E96" stroke-width="2" stroke-linecap="round" stroke-linejoin="round"/>
<path d="M35.25 12.75L27.125 35.25C27.0701 35.3697 26.9821 35.4711 26.8713 35.5422C26.7605 35.6133 26.6316 35.6511 26.5 35.6511C26.3683 35.6511 26.2394 35.6133 26.1287 35.5422C26.0179 35.4711 25.9298 35.3697 25.875 35.25L21.5 26.5L12.75 22.125C12.6303 22.0702 12.5289 21.9821 12.4578 21.8713C12.3867 21.7605 12.3489 21.6316 12.3489 21.5C12.3489 21.3684 12.3867 21.2395 12.4578 21.1287C12.5289 21.0179 12.6303 20.9298 12.75 20.875L35.25 12.75Z" stroke="#868E96" stroke-width="2" stroke-linecap="round" stroke-linejoin="round"/>
</svg>
