<svg width="48" height="48" viewBox="0 0 48 48" fill="none" xmlns="http://www.w3.org/2000/svg">
<rect width="48" height="48" rx="5" fill="#F5F5F5"/>
<path d="M34.5 12H13.5C13.1022 12 12.7206 12.158 12.4393 12.4393C12.158 12.7206 12 13.1022 12 13.5V16.5C12 16.8978 12.158 17.2794 12.4393 17.5607C12.7206 17.842 13.1022 18 13.5 18H34.5C34.8978 18 35.2794 17.842 35.5607 17.5607C35.842 17.2794 36 16.8978 36 16.5V13.5C36 13.1022 35.842 12.7206 35.5607 12.4393C35.2794 12.158 34.8978 12 34.5 12Z" stroke="#868E96" stroke-width="2" stroke-linecap="round" stroke-linejoin="round"/>
<path d="M19.5 24H13.5C13.1022 24 12.7206 24.158 12.4393 24.4393C12.158 24.7206 12 25.1022 12 25.5V34.5C12 34.8978 12.158 35.2794 12.4393 35.5607C12.7206 35.842 13.1022 36 13.5 36H19.5C19.8978 36 20.2794 35.842 20.5607 35.5607C20.842 35.2794 21 34.8978 21 34.5V25.5C21 25.1022 20.842 24.7206 20.5607 24.4393C20.2794 24.158 19.8978 24 19.5 24Z" stroke="#868E96" stroke-width="2" stroke-linecap="round" stroke-linejoin="round"/>
<path d="M27 24H36" stroke="#868E96" stroke-width="2" stroke-linecap="round" stroke-linejoin="round"/>
<path d="M27 30H36" stroke="#868E96" stroke-width="2" stroke-linecap="round" stroke-linejoin="round"/>
<path d="M27 36H36" stroke="#868E96" stroke-width="2" stroke-linecap="round" stroke-linejoin="round"/>
</svg>
