<svg width="56" height="56" viewBox="0 0 56 56" fill="none" xmlns="http://www.w3.org/2000/svg">
<rect x="4" y="4" width="48" height="48" rx="24" fill="#2F9E44"/>
<rect x="4" y="4" width="48" height="48" rx="24" stroke="#2B8A3E" stroke-width="8"/>
<path d="M28 34H21C20.4696 34 19.9609 33.7893 19.5858 33.4142C19.2107 33.0391 19 32.5304 19 32V22C19 21.4696 19.2107 20.9609 19.5858 20.5858C19.9609 20.2107 20.4696 20 21 20H35C35.5304 20 36.0391 20.2107 36.4142 20.5858C36.7893 20.9609 37 21.4696 37 22V29.5" stroke="white" stroke-width="2" stroke-linecap="round" stroke-linejoin="round"/>
<path d="M19 22L28 28L37 22" stroke="white" stroke-width="2" stroke-linecap="round" stroke-linejoin="round"/>
<path d="M38 33L35 36L32 33" stroke="white" stroke-width="2" stroke-linecap="round" stroke-linejoin="round"/>
</svg>
