<svg width="60" height="24" viewBox="0 0 60 24" fill="none" xmlns="http://www.w3.org/2000/svg">
<path d="M26 12C26 12.5304 25.7893 13.0391 25.4142 13.4142C25.0391 13.7893 24.5304 14 24 14C23.4696 14 22.9609 13.7893 22.5858 13.4142C22.2107 13.0391 22 12.5304 22 12C22 11.4696 22.2107 10.9609 22.5858 10.5858C22.9609 10.2107 23.4696 10 24 10C24.5304 10 25.0391 10.2107 25.4142 10.5858C25.7893 10.9609 26 11.4696 26 12ZM32 12C32 12.5304 31.7893 13.0391 31.4142 13.4142C31.0391 13.7893 30.5304 14 30 14C29.4696 14 28.9609 13.7893 28.5858 13.4142C28.2107 13.0391 28 12.5304 28 12C28 11.4696 28.2107 10.9609 28.5858 10.5858C28.9609 10.2107 29.4696 10 30 10C30.5304 10 31.0391 10.2107 31.4142 10.5858C31.7893 10.9609 32 11.4696 32 12ZM36 14C36.5304 14 37.0391 13.7893 37.4142 13.4142C37.7893 13.0391 38 12.5304 38 12C38 11.4696 37.7893 10.9609 37.4142 10.5858C37.0391 10.2107 36.5304 10 36 10C35.4696 10 34.9609 10.2107 34.5858 10.5858C34.2107 10.9609 34 11.4696 34 12C34 12.5304 34.2107 13.0391 34.5858 13.4142C34.9609 13.7893 35.4696 14 36 14Z" fill="#5B6871"/>
</svg>
