<svg width="48" height="48" viewBox="0 0 48 48" fill="none" xmlns="http://www.w3.org/2000/svg">
<g clip-path="url(#clip0_129_602)">
<path d="M46 44H2C1.46957 44 0.960859 44.2107 0.585786 44.5858C0.210714 44.9609 0 45.4696 0 46C0 46.5304 0.210714 47.0391 0.585786 47.4142C0.960859 47.7893 1.46957 48 2 48H46C46.5304 48 47.0391 47.7893 47.4142 47.4142C47.7893 47.0391 48 46.5304 48 46C48 45.4696 47.7893 44.9609 47.4142 44.5858C47.0391 44.2107 46.5304 44 46 44Z" fill="black"/>
<path d="M2 37H38C38.5304 37 39.0391 36.7893 39.4142 36.4142C39.7893 36.0391 40 35.5304 40 35C40 34.4696 39.7893 33.9609 39.4142 33.5858C39.0391 33.2107 38.5304 33 38 33H2C1.46957 33 0.960859 33.2107 0.585786 33.5858C0.210714 33.9609 0 34.4696 0 35C0 35.5304 0.210714 36.0391 0.585786 36.4142C0.960859 36.7893 1.46957 37 2 37Z" fill="black"/>
<path d="M46 22H2C1.46957 22 0.960859 22.2107 0.585786 22.5858C0.210714 22.9609 0 23.4696 0 24C0 24.5304 0.210714 25.0391 0.585786 25.4142C0.960859 25.7893 1.46957 26 2 26H46C46.5304 26 47.0391 25.7893 47.4142 25.4142C47.7893 25.0391 48 24.5304 48 24C48 23.4696 47.7893 22.9609 47.4142 22.5858C47.0391 22.2107 46.5304 22 46 22Z" fill="black"/>
<path d="M2 15H38C38.5304 15 39.0391 14.7893 39.4142 14.4142C39.7893 14.0391 40 13.5304 40 13C40 12.4696 39.7893 11.9609 39.4142 11.5858C39.0391 11.2107 38.5304 11 38 11H2C1.46957 11 0.960859 11.2107 0.585786 11.5858C0.210714 11.9609 0 12.4696 0 13C0 13.5304 0.210714 14.0391 0.585786 14.4142C0.960859 14.7893 1.46957 15 2 15Z" fill="black"/>
<path d="M2 4H46C46.5304 4 47.0391 3.78929 47.4142 3.41421C47.7893 3.03914 48 2.53043 48 2C48 1.46957 47.7893 0.960859 47.4142 0.585786C47.0391 0.210714 46.5304 0 46 0L2 0C1.46957 0 0.960859 0.210714 0.585786 0.585786C0.210714 0.960859 0 1.46957 0 2C0 2.53043 0.210714 3.03914 0.585786 3.41421C0.960859 3.78929 1.46957 4 2 4Z" fill="black"/>
</g>
<defs>
<clipPath id="clip0_129_602">
<rect width="48" height="48" fill="white"/>
</clipPath>
</defs>
</svg>
