<svg width="36" height="36" viewBox="0 0 36 36" fill="none" xmlns="http://www.w3.org/2000/svg">
<path fill-rule="evenodd" clip-rule="evenodd" d="M18 16.5C19.1935 16.5 20.3381 16.0259 21.182 15.182C22.0259 14.3381 22.5 13.1935 22.5 12C22.5 10.8065 22.0259 9.66193 21.182 8.81802C20.3381 7.97411 19.1935 7.5 18 7.5C16.8065 7.5 15.6619 7.97411 14.818 8.81802C13.9741 9.66193 13.5 10.8065 13.5 12C13.5 13.1935 13.9741 14.3381 14.818 15.182C15.6619 16.0259 16.8065 16.5 18 16.5ZM7.5 30C7.5 28.6211 7.77159 27.2557 8.29927 25.9818C8.82694 24.7079 9.60036 23.5504 10.5754 22.5754C11.5504 21.6004 12.7079 20.8269 13.9818 20.2993C15.2557 19.7716 16.6211 19.5 18 19.5C19.3789 19.5 20.7443 19.7716 22.0182 20.2993C23.2921 20.8269 24.4496 21.6004 25.4246 22.5754C26.3996 23.5504 27.1731 24.7079 27.7007 25.9818C28.2284 27.2557 28.5 28.6211 28.5 30H7.5Z" fill="#262626"/>
</svg>
