<svg width="36" height="36" viewBox="0 0 36 36" fill="none" xmlns="http://www.w3.org/2000/svg">
<path fill-rule="evenodd" clip-rule="evenodd" d="M30 18C30 21.1826 28.7357 24.2348 26.4853 26.4853C24.2348 28.7357 21.1826 30 18 30C14.8174 30 11.7652 28.7357 9.51472 26.4853C7.26428 24.2348 6 21.1826 6 18C6 14.8174 7.26428 11.7652 9.51472 9.51472C11.7652 7.26428 14.8174 6 18 6C21.1826 6 24.2348 7.26428 26.4853 9.51472C28.7357 11.7652 30 14.8174 30 18ZM21 13.5C21 14.2956 20.6839 15.0587 20.1213 15.6213C19.5587 16.1839 18.7956 16.5 18 16.5C17.2044 16.5 16.4413 16.1839 15.8787 15.6213C15.3161 15.0587 15 14.2956 15 13.5C15 12.7044 15.3161 11.9413 15.8787 11.3787C16.4413 10.8161 17.2044 10.5 18 10.5C18.7956 10.5 19.5587 10.8161 20.1213 11.3787C20.6839 11.9413 21 12.7044 21 13.5ZM18 19.5C16.5639 19.4997 15.1579 19.9117 13.9491 20.6871C12.7403 21.4625 11.7796 22.5686 11.181 23.874C12.025 24.8559 13.0714 25.6436 14.2484 26.1832C15.4254 26.7228 16.7052 27.0014 18 27C19.2948 27.0014 20.5746 26.7228 21.7516 26.1832C22.9286 25.6436 23.975 24.8559 24.819 23.874C24.2204 22.5686 23.2597 21.4625 22.0509 20.6871C20.8421 19.9117 19.4361 19.4997 18 19.5Z" fill="#262626"/>
</svg>
